<?xml version="1.0" standalone="no"?>
<!DOCTYPE svg PUBLIC "-//W3C//DTD SVG 1.1//EN"
"http://www.w3.org/Graphics/SVG/1.1/DTD/svg11.dtd">
<svg width="100%" height="100%" version="1.1"
xmlns="http://www.w3.org/2000/svg"
xmlns:xlink="http://www.w3.org/1999/xlink">
<g fill-rule="evenodd"><path d="M 10,61 L 16,61 L 17,61 L 17,60 L 17,52 L 17,51 L 10,51 L 10,0 L 35,0 L 35,8 L 35,9 L 36,9 L 44,9 L 45,9 L 45,0 L 90,0 L 90,73 L 86,73 L 85,73 L 85,74 L 85,80 L 85,81 L 90,81 L 90,100 L 10,100 L 10,61 z " style="fill-opacity:1;fill:rgb(0,0,220);stroke:rgb(0,0,230);stroke-width:0.5"/></g>
<g fill-rule="evenodd"><path d="M 10,60 L 10,52 L 16,52 L 16,60 L 10,60 z " style="fill-opacity:1;fill:rgb(0,110,0);"/></g>
<g fill-rule="evenodd"><path d="M 36,8 L 36,0 L 44,0 L 44,8 L 36,8 z " style="fill-opacity:1;fill:rgb(0,110,0);"/></g>
<g fill-rule="evenodd"><path d="M 86,80 L 86,74 L 90,74 L 90,80 L 86,80 z " style="fill-opacity:1;fill:rgb(0,110,0);"/></g>
<text style="fill-opacity:0.9;fill:rgb(220,220,220);font-size:6px;" x="12" y="58">C</text>
<text style="fill-opacity:0.9;fill:rgb(220,220,220);font-size:6px;" x="38" y="6">A</text>
<text style="fill-opacity:0.9;fill:rgb(220,220,220);font-size:6px;" x="88" y="76">B</text>
</svg>
