<?xml version="1.0" standalone="no"?>
<!DOCTYPE svg PUBLIC "-//W3C//DTD SVG 1.1//EN"
"http://www.w3.org/Graphics/SVG/1.1/DTD/svg11.dtd">
<svg width="100%" height="100%" version="1.1"
xmlns="http://www.w3.org/2000/svg"
xmlns:xlink="http://www.w3.org/1999/xlink">
<g fill-rule="evenodd"><path d="M 111.429,111.429 L 111.429,120 L 57.1429,120 L 57.1429,111.429 L 111.429,111.429 z " style="fill-opacity:0.5;fill:rgb(10,220,0);stroke:rgb(0,120,0);stroke-width:2"/></g>
<g fill-rule="evenodd"><path d="M 87.1429,97.1429 L 87.1429,105.714 L 0,105.714 L 0,97.1429 L 87.1429,97.1429 z " style="fill-opacity:0.5;fill:rgb(10,220,0);stroke:rgb(0,120,0);stroke-width:2"/></g>
<g fill-rule="evenodd"><path d="M 57.1429,82.8571 L 57.1429,91.4286 L 28.5714,91.4286 L 28.5714,82.8571 L 57.1429,82.8571 z " style="fill-opacity:0.5;fill:rgb(10,220,0);stroke:rgb(0,120,0);stroke-width:2"/></g>
<g fill-rule="evenodd"><path d="M 200,97.1429 L 200,105.714 L 100,105.714 L 100,97.1429 L 200,97.1429 z " style="fill-opacity:0.5;fill:rgb(10,220,0);stroke:rgb(0,120,0);stroke-width:2"/></g>
<g fill-rule="evenodd"><path d="M 157.143,94.2857 L 157.143,108.571 L 148.571,108.571 L 148.571,94.2857 L 157.143,94.2857 z " style="fill-opacity:0.5;fill:rgb(10,220,0);stroke:rgb(0,120,0);stroke-width:2"/></g>
<g fill-rule="evenodd"><path d="M 200,80 L 200,88.5714 L 122.857,88.5714 L 122.857,80 L 200,80 z " style="fill-opacity:0.5;fill:rgb(10,220,0);stroke:rgb(0,120,0);stroke-width:2"/></g>
</svg>
