<?xml version="1.0" standalone="no"?>
<!DOCTYPE svg PUBLIC "-//W3C//DTD SVG 1.1//EN"
"http://www.w3.org/Graphics/SVG/1.1/DTD/svg11.dtd">
<svg width="100%" height="100%" version="1.1"
xmlns="http://www.w3.org/2000/svg"
xmlns:xlink="http://www.w3.org/1999/xlink">
<g fill-rule="evenodd"><path d="M 110,110 L 110,117.5 L 62.5,117.5 L 62.5,110 L 110,110 z " style="fill-opacity:0.5;fill:rgb(10,220,0)"/></g>
<g fill-rule="evenodd"><path d="M 50,122.5 L 50,105 L 71.25,105 L 71.25,122.5 L 50,122.5 z " style="fill-opacity:0.5;fill:rgb(220,220,220)"/></g>
<g fill-rule="evenodd"><path d="M 101.25,122.5 L 101.25,105 L 122.5,105 L 122.5,122.5 L 101.25,122.5 z " style="fill-opacity:0.5;fill:rgb(220,220,220)"/></g>
<g fill-rule="evenodd"><path d="M 88.75,97.5 L 88.75,105 L 12.5,105 L 12.5,97.5 L 88.75,97.5 z " style="fill-opacity:0.5;fill:rgb(10,220,0)"/></g>
<g fill-rule="evenodd"><path d="M 0,110 L 0,92.5 L 21.25,92.5 L 21.25,110 L 0,110 z " style="fill-opacity:0.5;fill:rgb(220,220,220)"/></g>
<g fill-rule="evenodd"><path d="M 80,110 L 80,92.5 L 101.25,92.5 L 101.25,110 L 80,110 z " style="fill-opacity:0.5;fill:rgb(220,220,220)"/></g>
<g fill-rule="evenodd"><path d="M 62.5,85 L 62.5,92.5 L 37.5,92.5 L 37.5,85 L 62.5,85 z " style="fill-opacity:0.5;fill:rgb(10,220,0)"/></g>
<g fill-rule="evenodd"><path d="M 25,97.5 L 25,80 L 46.25,80 L 46.25,97.5 L 25,97.5 z " style="fill-opacity:0.5;fill:rgb(220,220,220)"/></g>
<g fill-rule="evenodd"><path d="M 53.75,97.5 L 53.75,80 L 75,80 L 75,97.5 L 53.75,97.5 z " style="fill-opacity:0.5;fill:rgb(220,220,220)"/></g>
<g fill-rule="evenodd"><path d="M 187.5,97.5 L 187.5,105 L 100,105 L 100,97.5 L 187.5,97.5 z " style="fill-opacity:0.5;fill:rgb(220,0,0)"/></g>
<g fill-rule="evenodd"><path d="M 87.5,110 L 87.5,92.5 L 108.75,92.5 L 108.75,110 L 87.5,110 z " style="fill-opacity:0.5;fill:rgb(220,220,220)"/></g>
<g fill-rule="evenodd"><path d="M 178.75,110 L 178.75,92.5 L 200,92.5 L 200,110 L 178.75,110 z " style="fill-opacity:0.5;fill:rgb(220,220,220)"/></g>
<g fill-rule="evenodd"><path d="M 150,95 L 150,107.5 L 142.5,107.5 L 142.5,95 L 150,95 z " style="fill-opacity:0.5;fill:rgb(220,0,0)"/></g>
<g fill-rule="evenodd"><path d="M 137.5,103.75 L 137.5,82.5 L 155,82.5 L 155,103.75 L 137.5,103.75 z " style="fill-opacity:0.5;fill:rgb(220,220,220)"/></g>
<g fill-rule="evenodd"><path d="M 137.5,120 L 137.5,98.75 L 155,98.75 L 155,120 L 137.5,120 z " style="fill-opacity:0.5;fill:rgb(220,220,220)"/></g>
<g fill-rule="evenodd"><path d="M 187.5,82.5 L 187.5,90 L 120,90 L 120,82.5 L 187.5,82.5 z " style="fill-opacity:0.5;fill:rgb(10,220,0)"/></g>
<g fill-rule="evenodd"><path d="M 107.5,95 L 107.5,77.5 L 128.75,77.5 L 128.75,95 L 107.5,95 z " style="fill-opacity:0.5;fill:rgb(220,220,220)"/></g>
<g fill-rule="evenodd"><path d="M 178.75,95 L 178.75,77.5 L 200,77.5 L 200,95 L 178.75,95 z " style="fill-opacity:0.5;fill:rgb(220,220,220)"/></g>
</svg>
